<?xml version="1.0" encoding="utf-8"?>
<!-- Designed by Vexels.com - 2016 All Rights Reserved - https://vexels.com/terms-and-conditions/  -->

<svg version="1.1" id="Layer_1" xmlns="http://www.w3.org/2000/svg" xmlns:xlink="http://www.w3.org/1999/xlink" x="0px" y="0px"
	 width="1200px" height="1200px" viewBox="0 0 1200 1200" enable-background="new 0 0 1200 1200" xml:space="preserve">
<g>
	<path fill="#CACACA" d="M180.94,337.012l29.124,73.725c0,0,17.952,76.353,23.541,75.039c5.589-1.314,74.603-25.4,74.603-25.4
		s6.14-40.75,1.211-53.353c-4.929-12.596-29.125-83.191-36.846-90.4c-7.721-7.209-11.228-22.101-11.228-22.101L180.94,337.012z"/>
	<path fill="#E9E9E9" d="M251.486,302.729C262.222,298.241,613,168.589,613,168.589l143.071-43.471l72.286,140.23L314.125,468.813
		L251.486,302.729z"/>
	<path fill="#E9E9E9" d="M208.505,554.572c10.737-4.494,361.52-134.146,361.52-134.146l276.174-104.25l72.285,140.23L271.144,720.65
		L208.505,554.572z"/>
	<path fill="#E9E9E9" d="M249.141,727.373c10.818-4.15,363.514-125.643,363.514-125.643l277.778-97.456l65.889,113.041
		L304.429,862.189L249.141,727.373z"/>
	<path fill="#E9E9E9" d="M318.863,915.219c10.77-4.351,362.316-130.736,362.316-130.736l276.818-101.536l69.723,129.351
		l-649.163,256.494L318.863,915.219z"/>
	<path fill="#CACACA" d="M86.69,604.832c1.313,5.59,48.515,114.377,48.515,114.377l113.702-1.194L217.492,576.04L86.69,604.832z"/>
	<path fill="#CACACA" d="M192.495,737.177c1.314,5.59,38.274,116.783,38.274,116.783l59.694,11.505l-32.352-141.751L192.495,737.177
		z"/>
	<g>
		<path fill="#584C44" d="M311.857,893.369l647.711-262.531l14.003-7.264l13.774-10.23l-13.703-36.804l-7.405,2.939
			c-4.335-10.764-10.263-25.847-15.802-41.323c-10.519-29.38-13.857-44.011-14.92-50.681l15.214-5.578l-15.05-40.548L911.347,447
			l-8.158,2.111l-8.164-21.272c-4.09-10.328-9.902-25.154-15.513-40.292c-9.93-26.856-14.277-41.41-16.174-48.882l11.61-4.215
			l-11.321-36.863l-2.966-3.719l-0.895-1.935L73.461,584.656l-1.494,4.625c-3.277,10.143-3.812,29.059,21.621,85.624
			c13.023,29.026,26.846,54.464,27.446,55.544l3.751,6.904l48.663,7.612c10.574,35.559,41.013,107.119,44.868,116.182l5.3,15.476
			L311.857,893.369z M257.026,802.249c4.924,12.929,9.99,25.809,14.391,36.852l-30.335-8.344
			c-5.181-9.314-15.749-37.756-28.269-79.62l27.707,4.324C244.304,767.529,249.844,783.239,257.026,802.249z M231.244,600.05
			l602.511-249.165c3.305,11.756,8.414,26.9,15.486,46.078c5.955,16.184,12.161,31.954,16.523,42.964L263.117,688.52
			c-4.493-10.748-10.181-24.713-15.579-39.055C237.433,622.866,233.115,607.99,231.244,600.05z M276.821,767.66
			c-2.149-6.009-3.987-11.424-5.568-16.271l634.03-252.301c2.917,12.897,7.901,29.108,15.165,49.323
			c5.703,15.978,11.756,31.404,16.332,42.74L305.242,841.44c-2.302-5.644-5.082-12.531-8.077-20.094l-18.229-47.845l-0.197-0.507
			C278.157,771.242,277.546,769.47,276.821,767.66z M107.002,617.92c0.883-0.414,1.887-0.818,3.005-1.216
			c25.482-9.477,76.822-8.103,91.921-7.465c3.354,12.984,8.976,29.707,17.085,51.127c5.186,13.627,10.574,26.97,15.006,37.686
			l-97.499,0.589C129.911,686.262,117.309,650.927,107.002,617.92z"/>
		<path fill="#332A61" d="M1038.752,656.511l20.563-7.661l-21.458-57.623L333.188,853.562L206.16,900.851
			c0,0-72.481,61.608-38.198,153.694C202.25,1146.652,292.455,1150,292.455,1150l138.354-51.505c0,0-0.343-0.108-0.861-0.288
			l699.685-260.476l-21.452-57.627l-25.521,9.505C1056.381,751.159,1043.32,684.769,1038.752,656.511z M403.511,1042.444
			c0,0-31.377,11.582-55.905-54.313c-22.096-59.35,7.04-76.942,7.04-76.942l653.95-243.456
			c8.136,68.609,25.58,111.525,38.547,135.098L403.511,1042.444z"/>
		<path fill="#79B943" d="M802.313,53.792l-1.151,0.431L208.445,274.875c0,0-58.238,59.488-58.838,65.796
			c-0.633,6.321,17.87,31.971,17.87,31.971l9.259-5.944c10.213,17.183,45.985,78.998,53.477,112l-14.297,4.03l15.268,37.026
			l79.44,9.079l-4.095-9.805l582.209-216.747c-0.201,0.48-0.36,0.758-0.36,0.758l20.41-7.596c0,0,60.993-31.185,17.391-148.295
			C879.287,21.194,802.313,53.792,802.313,53.792z M300.22,455.763l-21.463,7.988l0.426,1.146l-32.272,9.095
			c-8.762-27.81-27.172-79.898-52.49-118.685l35.477-22.793l17.319-6.452C261.416,350.743,293.31,410.132,300.22,455.763z
			 M871.473,243.089L330.086,444.644c-6.162-26.087-21.267-69.886-57.513-128.021l550.042-204.772c0,0,28.585-3.899,50.675,55.446
			C897.828,233.214,871.473,243.089,871.473,243.089z"/>
	</g>
	<path fill="#952825" d="M79.574,582.922c7.007-3.615,145.367-8.632,145.367-8.632l532.09-219.452c0,0-416.508,151-422.098,152.314
		c-5.595,1.313-85.559,12.258-85.559,12.258L73.461,584.656"/>
	<path fill="#1F92B9" d="M1039.951,596.86L319.932,880.74l-134.695,42.883c0,0,7.782-25.417,62.339-44.137
		c21.25,6.794,36.142,3.293,42.169,3.839c6.031,0.551,748.113-292.097,748.113-292.097L1039.951,596.86z"/>
	<path fill="#1F92B9" d="M322.451,879.589c0,0-74.401,44.278-31.491,150.809c32.119,79.875,138.987,67.809,138.987,67.809
		L292.455,1150c0,0-95.03-7.22-126.697-84.419c-40.733-99.311,30.282-156.344,30.282-156.344L322.451,879.589z"/>
</g>
</svg>
